<svg width="90" height="84" viewBox="0 0 90 84" fill="none" xmlns="http://www.w3.org/2000/svg">
<g clip-path="url(#clip0_10_72)">
<path d="M48.8669 62.4777C48.8669 46.0971 48.1641 32.0797 49.1179 18.1807C49.7347 9.20511 55.3216 2.49225 64.7347 0.541502C73.1795 -1.20843 80.6956 1.2802 85.8199 8.24408C91.5502 16.022 90.582 24.5995 86.4905 32.8256C85.1996 35.4182 83.2883 38.0431 80.9897 39.7393C71.0746 47.0438 60.9121 54.0041 48.8669 62.4813V62.4777Z" fill="#484FE4"/>
<path d="M41.4476 23.7352C41.4476 37.7634 42.0967 51.831 41.2181 65.8017C40.63 75.1503 33.3327 81.5153 24.4252 83.111C16.4465 84.5382 7.47813 80.5184 3.39017 73.68C-1.08507 66.1926 -1.0277 54.3841 5.81067 48.1231C16.2063 38.6025 27.961 30.5628 39.1347 21.8956C39.9057 22.5088 40.6767 23.122 41.4476 23.7316V23.7352Z" fill="#F191FF"/>
<path d="M0.883607 39.4129C0.883607 26.8693 0.521428 16.3769 1.19917 5.95262C1.33185 3.95526 5.4736 0.778122 7.9192 0.627513C18.2431 -0.0143679 28.6243 0.193616 38.9841 0.279678C43.7641 0.319123 44.2913 3.32413 42.4373 6.80607C40.9492 9.59951 39.2925 12.7336 36.8397 14.5086C25.5691 22.6666 13.9938 30.3979 0.883607 39.4129Z" fill="#AFB8F9"/>
<path d="M89.3234 45.2221C89.3234 57.2493 89.7967 67.3616 88.972 77.3664C88.7783 79.708 84.3031 83.3262 81.5814 83.5306C71.7308 84.28 61.787 83.8605 51.8791 83.8103C46.7082 83.7852 45.7006 80.834 48.1713 77.0508C50.7065 73.1708 53.5179 69.0578 57.1935 66.4149C66.9866 59.3722 77.3105 53.0609 89.3234 45.2185V45.2221Z" fill="#FF6419"/>
</g>
<defs>
<clipPath id="clip0_10_72">
<rect width="89.5335" height="83.9717" fill="white" transform="translate(0.306274)"/>
</clipPath>
</defs>
</svg>
